<?xml version="1.0"?>
<svg xmlns="http://www.w3.org/2000/svg" xmlns:xlink="http://www.w3.org/1999/xlink" xmlns:svgjs="http://svgjs.com/svgjs" version="1.1" width="512" height="512" x="0" y="0" viewBox="0 0 64 64" style="enable-background:new 0 0 512 512" xml:space="preserve" class=""><g><path xmlns="http://www.w3.org/2000/svg" d="m27 11c0-2.206-1.794-4-4-4s-4 1.794-4 4 1.794 4 4 4 4-1.794 4-4zm-6 0c0-1.103.897-2 2-2s2 .897 2 2-.897 2-2 2-2-.897-2-2z" fill="#ffffff" data-original="#000000" style="" class=""/><path xmlns="http://www.w3.org/2000/svg" d="m49.001 14.313c-.017.01-.025.026-.041.036-1.48.869-2.716 2.104-3.584 3.585-.01.015-.025.022-.034.038-.007.013-.007.026-.013.039-.842 1.464-1.33 3.154-1.33 4.961 0 1.805.487 3.495 1.328 4.958.006.012.005.024.012.036.013.022.032.039.047.061.868 1.474 2.1 2.703 3.575 3.568.015.01.022.025.038.034.018.01.036.014.054.022 1.46.836 3.146 1.32 4.946 1.32 1.797 0 3.479-.482 4.938-1.315.02-.01.041-.015.061-.025.018-.01.027-.027.044-.038 1.465-.86 2.689-2.081 3.556-3.542.02-.027.044-.049.061-.078.009-.016.009-.032.017-.048.837-1.462 1.323-3.148 1.324-4.95 0-.001 0-.001 0-.001 0-.001 0-.001 0-.002 0-1.801-.485-3.487-1.321-4.948-.009-.017-.008-.034-.018-.051-.012-.021-.032-.031-.045-.051-.864-1.47-2.092-2.697-3.561-3.563-.021-.014-.033-.035-.055-.048-.018-.01-.037-.01-.056-.019-.528-.303-1.086-.555-1.669-.758.746-.802 1.213-1.868 1.213-3.047 0-2.476-2.014-4.49-4.489-4.49s-4.489 2.015-4.489 4.49c0 1.179.467 2.245 1.213 3.047-.587.204-1.148.459-1.68.764-.014.009-.028.008-.042.015zm11.37 3.843c-.427.292-.574.86-.311 1.315.185.321.521.501.867.501.149 0 .3-.04.441-.11.282.665.47 1.379.563 2.122-.52.036-.933.456-.934.984-.001.53.413.953.934.989-.092.744-.28 1.46-.563 2.127-.468-.233-1.041-.075-1.307.385-.265.456-.119 1.026.311 1.318-.445.588-.968 1.11-1.556 1.556-.29-.428-.86-.575-1.316-.312-.461.265-.62.84-.386 1.309-.668.283-1.383.472-2.128.564-.035-.521-.457-.935-.986-.935s-.951.414-.986.935c-.746-.092-1.462-.28-2.129-.564.233-.468.074-1.043-.386-1.309-.457-.264-1.026-.118-1.318.312-.587-.445-1.109-.968-1.555-1.555.429-.292.576-.86.313-1.316-.266-.462-.842-.621-1.311-.388-.282-.667-.471-1.383-.563-2.127.521-.036.935-.458.935-.987s-.414-.951-.935-.986c.093-.743.28-1.457.563-2.123.142.071.293.111.443.111.346 0 .682-.179.867-.5.264-.456.117-1.026-.312-1.318.444-.586.966-1.107 1.552-1.552.191.281.5.442.822.442.17 0 .342-.043.499-.134.46-.266.619-.84.386-1.309.667-.282 1.382-.471 2.127-.563.035.521.457.935.986.935s.951-.414.986-.935c.745.093 1.46.281 2.127.563-.233.469-.074 1.042.386 1.308.157.091.329.134.499.134.322 0 .631-.16.822-.441.587.446 1.109.968 1.553 1.554zm-6.372-10.158c1.373 0 2.489 1.117 2.489 2.49 0 1.017-.614 1.889-1.489 2.275v-.789c.553 0 1-.447 1-1s-.447-1-1-1h-2c-.553 0-1 .447-1 1s.447 1 1 1v.789c-.875-.387-1.489-1.259-1.489-2.275 0-1.373 1.116-2.49 2.489-2.49z" fill="#ffffff" data-original="#000000" style="" class=""/><path xmlns="http://www.w3.org/2000/svg" d="m53.999 16.975c-.553 0-1 .447-1 1v5c0 .553.447 1 1 1s1-.447 1-1v-5c0-.553-.447-1-1-1z" fill="#ffffff" data-original="#000000" style="" class=""/><path xmlns="http://www.w3.org/2000/svg" d="m63 57.021h-.884c-.04-.005-.075-.023-.116-.023v-1.986c0-.025-.013-.047-.015-.071-.034-7.856-5.766-14.377-13.267-15.67.178-.382.282-.802.282-1.25 0-1.654-1.346-3-3-3s-3 1.346-3 3c0 .447.104.867.281 1.249-3.911.674-7.34 2.762-9.732 5.731l-2.549-.001v-4.165c4.774-2.771 8-7.929 8-13.835v-4h1c.127 0 .252-.027.371-.075.052-.021.093-.057.14-.085.054-.032.112-.055.161-.099.007-.006.009-.014.015-.021.055-.051.091-.116.132-.179.031-.047.071-.088.094-.139.021-.047.023-.101.037-.151.021-.076.044-.15.046-.229-.001-.007.004-.014.004-.022 0-.049-.021-.091-.027-.138-.011-.075-.018-.149-.045-.221-.026-.069-.07-.125-.11-.186-.027-.042-.041-.09-.076-.128-.055-.061-.555-.591-1.741-1.262v-2.065c0-8.484-6.645-15.429-15-15.949v-.051c0-.553-.447-1-1-1s-1 .447-1 1v.051c-8.356.52-15.001 7.465-15.001 15.949v2.066c-1.187.671-1.687 1.201-1.741 1.262-.035.039-.049.087-.077.129-.04.061-.083.116-.109.184-.024.064-.029.131-.04.198-.01.055-.033.104-.033.161 0 .009.005.017.005.026.002.046.02.089.027.134.06.356.292.647.623.771.013.005.026.004.039.008.098.031.198.061.306.061h1v4c0 5.906 3.226 11.063 8 13.835v4.167l-5.998-.002c-4.964 0-9.002 4.038-9.002 9.002l.001 6.998c0 1.103.897 2 2 2h12.998 18.001 18.001 7.999c2.198 0 3.986-1.782 3.998-3.979h.002c.553 0 1-.447 1-1s-.447-1-1-1zm-17-20c.552 0 1 .448 1 1s-.448 1-1 1-1-.448-1-1 .448-1 1-1zm-.001 4c7.714 0 13.99 6.276 13.99 13.99 0 .019.01.034.011.053v1.957h-28v-1.961c.001-.018.01-.031.01-.049 0-7.713 6.275-13.99 13.989-13.99zm-36.999-23.021c0-7.72 6.28-14 14-14s14 6.28 14 14v1.125c-2.702-1.069-7.111-2.125-14-2.125s-11.298 1.056-14 2.125zm27.285 3h-26.568c2.436-.971 6.582-2 13.283-2 6.704 0 10.852 1.03 13.285 2zm-27.285 6v-4h28v4c0 7.72-6.28 14-14 14s-14-6.28-14-14zm14 16c2.122 0 4.146-.424 6-1.178v3.562l-3.076 1.535-2.608-.866c-.04-.013-.08-.007-.12-.015-.064-.013-.128-.022-.195-.023-.067.001-.131.011-.195.023-.04.008-.08.002-.12.015l-2.608.866-3.078-1.535v-3.562c1.854.754 3.878 1.178 6 1.178zm-20.999 18-.001-6.998c0-3.861 3.141-7.002 7.002-7.002l6.763.002 3.789 1.891c.03.016.063.022.095.034.025.01.051.021.077.028.091.025.183.043.273.043h.001c.002 0 .004-.001.006-.001.098-.001.193-.018.286-.046.008-.003.016-.001.023-.004l2.685-.891 2.685.892c.008.003.016.001.023.004.093.028.188.045.286.046.002 0 .004.001.006.001h.001c.091 0 .183-.018.273-.043.026-.008.052-.019.077-.028.031-.012.064-.019.095-.034l3.792-1.894 1.944.001c-1.362 2.341-2.158 5.05-2.17 7.946 0 .023-.012.041-.012.065v1.986c-.041 0-.076.019-.116.023h-.884c-.553 0-1 .447-1 1s.447 1 1 1h.002c.004.724.213 1.394.555 1.979h-14.558zm56.999 0h-7.999-18.001c-1.095 0-1.986-.886-1.998-1.979h29.996c-.012 1.093-.903 1.979-1.998 1.979z" fill="#ffffff" data-original="#000000" style="" class=""/><path xmlns="http://www.w3.org/2000/svg" d="m45.999 44.021c6.06 0 10.99 4.931 10.99 10.99 0 .553.447 1 1 1s1-.447 1-1c0-7.163-5.827-12.99-12.99-12.99-.553 0-1 .447-1 1s.447 1 1 1z" fill="#ffffff" data-original="#000000" style="" class=""/></g></svg>
