<?xml version="1.0"?>
<svg xmlns="http://www.w3.org/2000/svg" xmlns:xlink="http://www.w3.org/1999/xlink" xmlns:svgjs="http://svgjs.com/svgjs" version="1.1" width="512" height="512" x="0" y="0" viewBox="0 0 512 512" style="enable-background:new 0 0 512 512" xml:space="preserve" class=""><g><g xmlns="http://www.w3.org/2000/svg"><path d="m121 195v317h90v-212h45c36.22 0 66.522-25.808 73.491-60h61.509c0-21.888 0-130.458 0-150h-150v120h-30v-15c0-24.813-20.187-45-45-45s-45 20.187-45 45zm150-75h90v30h-90zm0 60h90v30h-90zm-120 15c0-8.271 6.729-15 15-15s15 6.729 15 15v44.99h117.43c-6.191 17.461-22.873 30.01-42.43 30.01h-90c-8.271 0-15-6.729-15-15zm0 102.42c4.695 1.665 9.741 2.58 15 2.58h15v182h-30z" fill="#ffffff" data-original="#000000" style=""/><path d="m211 105v-15h30v-30h-30v-15c0-24.813-20.187-45-45-45s-45 20.187-45 45v60c0 24.813 20.187 45 45 45s45-20.187 45-45zm-30 0c0 8.271-6.729 15-15 15s-15-6.729-15-15v-15h30zm0-45h-30v-15c0-8.271 6.729-15 15-15s15 6.729 15 15z" fill="#ffffff" data-original="#000000" style=""/></g></g></svg>
