<?xml version="1.0"?>
<svg xmlns="http://www.w3.org/2000/svg" xmlns:xlink="http://www.w3.org/1999/xlink" xmlns:svgjs="http://svgjs.com/svgjs" version="1.1" width="512" height="512" x="0" y="0" viewBox="0 0 511.995 511.995" style="enable-background:new 0 0 512 512" xml:space="preserve"><g>
<g xmlns="http://www.w3.org/2000/svg">
	<g>
		<path d="M508.701,237.627L263.368,2.96c-4.117-3.947-10.624-3.947-14.741,0L3.293,237.627c-3.136,3.008-4.139,7.637-2.517,11.669    c1.6,4.053,5.525,6.699,9.877,6.699h53.333v245.333c0,5.888,4.779,10.667,10.667,10.667H437.32    c5.888,0,10.667-4.779,10.667-10.667V255.995h53.333c4.352,0,8.277-2.645,9.899-6.699    C512.84,245.264,511.837,240.635,508.701,237.627z M402.205,380.88l-8.832,8.832c-10.091,10.069-23.467,15.616-37.717,15.616    H156.339c-14.251,0-27.648-5.547-37.717-15.616l-8.832-8.832c-4.16-4.16-4.16-10.923,0-15.083c4.16-4.16,10.923-4.16,15.083,0    l3.968,3.968c6.336-56.939,50.176-102.613,106.197-111.893c-0.064-0.661-0.384-1.216-0.384-1.877    c0-11.755,9.579-21.333,21.333-21.333s21.333,9.579,21.333,21.333c0,0.661-0.32,1.216-0.384,1.877    c56.021,9.28,99.861,54.933,106.197,111.893l3.968-3.968c4.16-4.16,10.923-4.16,15.083,0S406.365,376.699,402.205,380.88z" fill="#ffffff" data-original="#000000" style=""/>
	</g>
</g>
<g xmlns="http://www.w3.org/2000/svg">
	<g>
		<path d="M255.987,277.328c-58.539,0-106.133,47.424-106.581,105.856c2.261,0.491,4.565,0.811,6.933,0.811h199.317    c2.347,0,4.651-0.32,6.912-0.832C362.099,324.752,314.504,277.328,255.987,277.328z M246.6,320.656    c-21.141,3.136-39.253,16.576-48.469,35.989c-1.835,3.84-5.653,6.08-9.643,6.08c-1.536,0-3.093-0.341-4.565-1.045    c-5.312-2.517-7.573-8.875-5.056-14.208c12.288-25.813,36.437-43.733,64.619-47.893c5.867-0.811,11.264,3.157,12.117,8.981    C256.456,314.384,252.424,319.803,246.6,320.656z" fill="#ffffff" data-original="#000000" style=""/>
	</g>
</g>
<g xmlns="http://www.w3.org/2000/svg">
	<g>
		<polygon points="255.987,255.973 255.987,255.995 266.653,255.995   " fill="#ffffff" data-original="#000000" style=""/>
	</g>
</g>
<g xmlns="http://www.w3.org/2000/svg">
</g>
<g xmlns="http://www.w3.org/2000/svg">
</g>
<g xmlns="http://www.w3.org/2000/svg">
</g>
<g xmlns="http://www.w3.org/2000/svg">
</g>
<g xmlns="http://www.w3.org/2000/svg">
</g>
<g xmlns="http://www.w3.org/2000/svg">
</g>
<g xmlns="http://www.w3.org/2000/svg">
</g>
<g xmlns="http://www.w3.org/2000/svg">
</g>
<g xmlns="http://www.w3.org/2000/svg">
</g>
<g xmlns="http://www.w3.org/2000/svg">
</g>
<g xmlns="http://www.w3.org/2000/svg">
</g>
<g xmlns="http://www.w3.org/2000/svg">
</g>
<g xmlns="http://www.w3.org/2000/svg">
</g>
<g xmlns="http://www.w3.org/2000/svg">
</g>
<g xmlns="http://www.w3.org/2000/svg">
</g>
</g></svg>
